<svg xmlns="http://www.w3.org/2000/svg" width="1426" height="1480" viewBox="0 0 1426 1480"><rect width="1426" height="1480" fill="#A30711" rx="16"/><path fill="#FFF" fill-rule="evenodd" d="M20 740v720h1386V20H20zM1400 28l2 1v154l-2 155-6 1q-4-1-7 6l-5 10q-8 21-11 24-2 4-14-1-10-5-12 0l-11 28q-3 17-16 8c-8-3-9-3-12-1l-8 18-6 18q-3 4-12-1-13-8-18 12l-6 16c-5 11-7 12-14 9q-11-6-14-3c-2 1-8 15-14 30l-4 8c-3 2-3 2-9 0q-11-4-14 0l-4 7q-9 28-14 30l-7-2q-11-3-14-1l-4 11c-8 18-10 22-13 23l-5-1h-12l-5 9-4 10q-4 6-12 7-4 2-14-15a626 626 0 0 1-63-124l-6-15-5-13-5-11-7-18-7-18-6-14-5-16-9-23-9-23-5-14-6-16-29-73c-9-22-28-62-39-81-15-24-14-23-28-42-9-12-29-32-40-39-26-18-42-22-80-19-24 1-37 5-57 14-33 17-66 43-127 102l-69 66-27 26-87 79-139 123-18 17-29 25-24 21A894 894 0 0 0 26 641l-1-306c0-283 0-306 2-307 1-2 24-2 686-2 632 0 685 0 687 2M766 61c14 4 24 9 39 21 25 21 47 53 73 105l28 65a1731 1731 0 0 1 43 113l7 17 6 18 8 22 28 67 6 15a761 761 0 0 0 63 116q6 7 4 15l-3 6q-4 3-13 4-5 0-16-16l-7-11-18-31-28-57-9-20-18-44-6-17-45-119-24-63-12-29-6-13-7-18c-32-69-64-109-103-128-12-6-21-8-38-8l-14-1 2-2c8-7 43-11 60-7m-39 29q37 11 69 54a377 377 0 0 1 36 60 671 671 0 0 1 32 74l11 29 16 41 28 75 9 26 4 10 20 48 8 19a767 767 0 0 0 74 135c0 3-3 10-5 12l-10 1q-9 1-10-3c-7-6-24-32-35-51a895 895 0 0 1-63-144l-16-42-5-15-6-16-15-41-9-25a1212 1212 0 0 0-48-112 246 246 0 0 0-78-104c-8-6-21-13-30-16-12-4-19-4-35-2h-17q-3-3 6-7a172 172 0 0 1 44-8c5-1 18 0 25 2m-39 32q45 11 86 78a711 711 0 0 1 61 134l49 132 16 44 7 18a545 545 0 0 0 31 70 299 299 0 0 0 23 44c8 14 20 32 31 45q8 8 3 15-3 8-13 6l-8-1c-5-3-23-27-35-47a953 953 0 0 1-55-120l-6-16-21-56-6-16-65-170q-37-84-78-119c-16-13-25-19-40-24-13-5-19-5-35-4s-17 1-15-4q1-3 7-4c5-2 27-7 33-7 7-1 21 0 30 2m-33 34q31 11 61 48a462 462 0 0 1 66 126l8 22 34 90 9 24 8 24 19 51a1104 1104 0 0 0 65 140 376 376 0 0 0 36 51l-6 9c-8 8-9 9-12 7l-16-16-15-20-7-11a891 891 0 0 1-54-115l-7-16-23-62-9-24c-1-5-5-17-9-25l-21-58-18-47-7-16c-3-9-17-41-26-56l-8-17-19-29-6-10-27-28c-11-10-28-20-40-24-9-3-10-3-28-3-16 0-18-1-18-2 0-2 6-8 10-10 2-2 19-5 27-6h13q11 0 20 4m-36 36q18 5 35 21c14 12 24 24 37 44l9 13 40 84 5 13 13 32 16 44 31 87 36 93 6 14 17 36a330 330 0 0 0 68 99l-4 8-5 9q-2 7-16-6c-17-15-26-26-40-49a698 698 0 0 1-67-146l-6-16-5-16-5-13-3-9-24-65-47-120q-21-49-44-80c-12-18-32-37-45-46-7-4-25-13-33-15l-18-2h-13q-3-2 2-8 8-10 38-10c11 1 13 1 22 4m-38 36c20 7 30 13 47 30l16 18a435 435 0 0 1 61 118l8 19 30 81 69 181a536 536 0 0 0 33 66l6 10c12 19 33 43 45 52 13 9 13 10 13 13l-9 17q-3 5-10-1-22-11-39-32a263 263 0 0 1-27-39c-9-14-28-54-37-78l-7-17-24-65-13-35-32-89-31-79c-7-19-27-60-38-77-13-22-20-30-33-43-18-18-32-27-52-33l-19-3q-18 1-9-7c5-6 8-8 18-10q18-3 35 3m-35 36c27 8 48 26 72 62a561 561 0 0 1 38 71l12 29 9 23 14 39 39 108a2602 2602 0 0 0 66 161l8 14q18 33 38 53c12 13 21 19 34 26l10 7c1 3-6 16-9 18s-3 2-11-1c-37-13-65-46-96-111l-9-18-6-16-10-23-9-24-8-21-6-15-6-18-18-52-9-24-9-24-17-47-6-15-7-17a711 711 0 0 0-50-102q-21-28-43-46c-15-12-40-22-50-21q-8 2-9-3c0-3 8-12 12-14 8-3 24-3 36 1m-46 34 10 3c17 4 39 20 56 40 20 23 36 51 54 92a1217 1217 0 0 1 53 139l14 40 15 42 29 75 3 7 20 45c9 21 30 55 44 71q25 29 54 39 14 5 13 8c0 2-6 11-9 13-4 3-22-1-36-8q-32-17-61-60a543 543 0 0 1-61-132l-29-80-20-54-6-16q0-5-5-14l-18-49-6-15a921 921 0 0 0-44-91l-18-26c-7-9-22-24-31-31-8-6-24-15-36-18-12-4-13-5-11-9q5-6 12-11zm-17 41c14 7 19 10 30 19q43 36 89 157l9 22a4175 4175 0 0 1 69 189l6 17 14 32 7 18q2 0 2 5l19 38 7 12c13 24 41 55 60 67q15 10 32 13c14 3 15 3 15 6 0 2-8 13-13 15-3 2-4 2-13 1q-33-3-59-29c-20-19-36-43-55-81a596 596 0 0 1-31-72 608 608 0 0 1-27-70l-11-30-8-23-35-96-9-21a929 929 0 0 0-56-115l-8-10q-24-31-54-46c-16-8-17-9-15-13q5-9 12-10c10-1 11-1 23 5m-35 35c29 14 52 39 76 84 7 12 21 42 24 50l6 12 12 29 12 32 5 13 19 52 7 21 29 80 8 21 9 21 11 26q29 68 57 103 36 45 78 49 16 1 12 7-7 9-14 12c-4 1-26 0-31-2-15-5-23-9-34-17-14-10-30-28-43-46a614 614 0 0 1-64-136l-19-50-8-24-21-57-21-56-6-17a1391 1391 0 0 0-52-112c-3-6-12-20-18-27q-18-24-38-40-12-9-28-15-7-3-4-9 3-5 11-8c9-2 14-2 25 4m-38 34q11 5 17 10c14 11 34 32 44 47a466 466 0 0 1 47 94l19 47 11 29 11 32c2 5 7 16 9 25l57 149 6 14 8 16 6 14c3 7 20 38 28 49 11 17 16 22 27 33q32 34 70 36 13 1 12 4c0 2-7 9-12 11-4 2-6 2-19 2-14 0-15 0-24-3-18-6-28-13-45-29q-18-18-35-46l-36-72-33-82-6-16-6-17-6-16-42-111a726 726 0 0 0-35-84c-17-36-40-71-56-88-14-15-33-29-46-34q-8-2-8-8 1-6 10-8l8-2c5-3 8-2 19 4m-45 31c11 4 17 8 26 15q23 19 45 52a541 541 0 0 1 51 105l30 79 19 50 18 48 6 15 9 23a1042 1042 0 0 0 54 119 242 242 0 0 0 62 75c4 4 23 13 31 15l16 3 10 2q3 3-6 8l-7 4h-37l-8-4q-24-9-44-32-27-30-53-83l-17-37-5-11-5-12-18-46-18-48-11-29-25-66-13-32-11-29a625 625 0 0 0-45-91l-9-14a179 179 0 0 0-64-61q-15-5-8-14 8-13 27-4m1036 337c1 324 1 324-1 326s-3 2-347 2l-346-1q-3-3 13-10c15-8 40-25 58-40l16-14a589 589 0 0 0 53-47l114-105 31-29 69-63 13-12 54-51 30-28c33-30 57-53 85-81l38-37 61-64 14-17c11-11 25-29 32-40 9-14 9-14 11-14l2 1zM330 474q25 12 49 42a340 340 0 0 1 51 87 1385 1385 0 0 1 47 114l63 166 5 11 5 12c6 16 31 66 37 76l9 14c10 15 17 24 29 37q30 34 64 37 7 0 7 2l-3 3c-3 2-25 5-30 5-10 0-31-7-41-15-13-10-30-27-39-40l-6-9a531 531 0 0 1-55-110l-10-25-30-76-9-24-21-56-9-22-22-55-8-18c-8-17-24-49-33-63q-15-27-35-47-16-17-36-28l-11-7q-2-4 3-10 6-6 17-6zm-41 33q17 8 36 26a444 444 0 0 1 60 91 1180 1180 0 0 1 60 147l19 51 51 124a505 505 0 0 0 73 120c11 11 18 16 32 23l12 7q1 6-26 0c-15-3-24-8-36-16q-19-16-40-48c-12-17-30-52-40-74l-8-19a1362 1362 0 0 1-41-104l-12-33a1436 1436 0 0 0-40-102l-40-84q-30-56-61-78c-7-6-11-8-26-15q-6-3-2-12 7-13 29-4m-39 39c21 11 34 23 55 50 6 8 18 28 28 49l36 82 9 22 28 73 29 77 5 12 16 39 8 18a1026 1026 0 0 0 47 87q16 22 37 42l4 5v2H293l-265-1-3-3V919c0-174 0-182 2-183q2-2 5-1l5-1 5-10c7-20 9-24 11-25l7 2q8 5 11 2t9-24q5-16 15-9 9 8 13-3l6-16c6-17 8-20 16-15q8 4 12 0l3-6 10-26q5-2 12 1 9 6 14-7l8-22q1-6 12-3c8 3 9 2 14-9l7-14 3-6h6c12-1 13-1 19 2m1150 577 2 2v163l-2 165-2 2H29l-2-2c-2-2-2-3-2-164 0-137 0-163 2-166l1-3h1370zm-797 30h-71l-2 3v5l2 2 27 4q9 4 14 11c2 6 3 25 3 103 0 97-1 104-10 109q-4 4-24 8-11 1-11 6c0 5-1 4 71 4h123l28-4 13-4a163 163 0 0 0 80-51c15-20 20-34 23-60 2-20-2-45-11-63l-20-27q-28-29-80-41c-24-6-36-6-155-5m114 23a164 164 0 0 1 57 24c8 5 23 20 27 28a103 103 0 0 1 6 94q-26 53-99 65a302 302 0 0 1-79-2c-3-2-3-4-3-25v-184l3-3 37-1 35 1zm-622-21q-4 4 1 7l13 4q34 6 37 20a2199 2199 0 0 0-15 143l-3 23c-2 10-6 25-9 31l-7 8c-3 2-13 6-20 7q-11 4-5 9c4 2 96 1 99-1q6-6-12-10-15-4-19-12l-1-20a368 368 0 0 1 4-63 884 884 0 0 1 9-84q4 1 8 9a2812 2812 0 0 0 101 180q8 13 17-3l44-86 22-45 31-62c2 0 3 3 8 44l9 76c4 31 5 45 4 50q-2 9-11 13l-13 4c-10 2-11 3-11 7s-1 4 62 4h61q5-3 1-7-2-2-8-3-17-5-23-9-9-6-11-34l-22-171 2-8q5-7 26-10 14-3 16-7 2-1-1-4c-2-2-3-2-44-2l-44 2-16 31a2286 2286 0 0 0-67 139l-10 19q-4 2-11-12l-13-24-6-12-29-52-49-89-47-2c-41 0-46 0-48 2m831 0q-4 2-1 7l14 4q34 7 36 20l-13 124c-5 51-9 69-18 78-4 4-6 5-14 8l-11 3q-4 1-5 5c0 4 1 4 51 4l50-1c3-3 0-9-5-9l-10-2-12-7c-7-8-7-16-3-59 5-45 9-98 9-105q0-7 3-7 4 0 7 9l7 12 29 53 37 65 12 21 13 22q7 13 11 12c5 0 7-3 24-36l23-45 24-49 30-64c3-11 10-11 10 0l1 12 15 142c0 11-1 14-6 18q-5 5-20 7-9 3-9 6l1 4 62 1 61-1q7-3-3-8l-11-3c-19-5-24-11-27-39l-4-30-8-61-4-33-3-28c-3-21-3-25-1-29q3-6 24-10l15-3q6-4 3-8c-2-2-5-2-42-2l-44 1c-5 1-4-1-24 42l-14 29-8 16-50 104q-3 3-8-6a5070 5070 0 0 0-101-183l-2-3h-45z"/></svg>